<svg width="91" height="33" viewBox="0 0 91 33" fill="none" xmlns="http://www.w3.org/2000/svg">
<circle cx="87.7914" cy="29.5712" r="3.1432" fill="#00DBE9"/>
<path d="M16.1603 8.97947C16.5567 9.31853 17.1525 9.32352 17.5217 8.95502L20.6341 5.84851C21.0033 5.48 21.0047 4.87888 20.6166 4.53024C14.849 -0.652328 7.16441 -0.479153 3.22662 3.93114C1.25862 6.13528 0.227877 9.56731 1.48423 12.8596C2.79021 16.282 6.169 18.5994 11.0878 19.4327C14.6109 20.0296 15.283 21.3571 15.4423 21.9043C15.688 22.748 15.4025 24.0146 14.5895 25.0308C13.435 26.474 9.5328 27.5726 6.66343 24.221C6.32419 23.8247 5.74116 23.708 5.31004 24.0016L1.67568 26.4772C1.24456 26.7709 1.13128 27.3615 1.45071 27.7739C6.87498 34.7768 15.8309 33.5422 19.4984 28.958C21.1999 26.831 22.4508 23.4876 21.4781 20.1469C20.4191 16.5097 17.1184 14.0784 12.1378 13.2346C8.55288 12.6273 7.60123 11.257 7.35752 10.6184C7.06419 9.8497 7.26453 8.84749 7.91586 8.118C8.99065 6.91425 12.5043 5.8524 16.1603 8.97947Z" fill="#2D3034"/>
<path d="M51.3202 1.19669C50.7986 1.19669 50.3757 1.61956 50.3757 2.1412V31.6842C50.3757 32.2058 50.7986 32.6287 51.3202 32.6287H55.7315C56.2531 32.6287 56.676 32.2058 56.676 31.6842V2.14119C56.676 1.61956 56.2531 1.19669 55.7315 1.19669H51.3202Z" fill="#2D3034"/>
<path fill-rule="evenodd" clip-rule="evenodd" d="M76.9559 30.8832V31.6842C76.9559 32.2058 77.3787 32.6287 77.9004 32.6287H82.2978C82.8194 32.6287 83.2423 32.2058 83.2423 31.6842V20.0559L83.2422 20.0373L83.2422 20.0271C83.2423 20.0156 83.2423 20.004 83.2423 19.9925C83.2423 13.0487 77.6132 7.41966 70.6695 7.41966C63.7257 7.41966 58.0967 13.0487 58.0967 19.9925C58.0967 26.9362 63.7257 32.5653 70.6695 32.5653C72.9595 32.5653 75.1066 31.953 76.9559 30.8832ZM76.9559 20.089C76.9559 16.6172 74.1414 13.8026 70.6695 13.8026C67.1976 13.8026 64.3831 16.6172 64.3831 20.089C64.3831 23.5609 67.1976 26.3754 70.6695 26.3754C74.1414 26.3754 76.9559 23.5609 76.9559 20.089Z" fill="#2D3034"/>
<path fill-rule="evenodd" clip-rule="evenodd" d="M35.8122 32.6287C39.1279 32.6287 42.1438 31.3452 44.3902 29.248C44.7971 28.8681 44.734 28.2206 44.2886 27.8866L40.7358 25.222C40.3695 24.9473 39.8631 24.9815 39.4921 25.2499C38.4576 25.998 37.1864 26.4389 35.8122 26.4389C34.0552 26.4389 32.4665 25.7181 31.3258 24.556C30.818 24.0387 31.249 23.2625 31.9738 23.2625H46.5989C46.6002 23.2625 46.6012 23.2615 46.6012 23.2603C46.6012 23.2596 46.6015 23.259 46.6019 23.2586C46.6023 23.2583 46.6029 23.258 46.6034 23.258H47.376C47.7281 23.258 48.0384 23.0211 48.1115 22.6766C48.2907 21.8313 48.385 20.9546 48.385 20.0559C48.385 13.1121 42.756 7.48309 35.8122 7.48309C28.8684 7.48309 23.2394 13.1121 23.2394 20.0559C23.2394 26.9997 28.8684 32.6287 35.8122 32.6287ZM41.1423 16.8179C41.4897 17.3721 41.0396 18.0239 40.3855 18.0239H31.239C30.5849 18.0239 30.1347 17.3721 30.4821 16.8179C31.5937 15.0449 33.5653 13.8661 35.8122 13.8661C38.0591 13.8661 40.0307 15.0449 41.1423 16.8179Z" fill="#2D3034"/>
<path d="M77.383 8.66674C77.383 8.23205 77.7354 7.87966 78.1701 7.87966H82.4978C82.9325 7.87966 83.2849 8.23205 83.2849 8.66674V27.1632C83.2849 27.5979 82.9325 27.9503 82.4978 27.9503H78.1701C77.7354 27.9503 77.383 27.5979 77.383 27.1632V8.66674Z" fill="#2D3034"/>
</svg>
